<svg width="123" height="18" viewBox="0 0 123 18" fill="none" xmlns="http://www.w3.org/2000/svg">
<path d="M0.24 18L9.03 0.36H16.83L25.59 18H19.14L17.67 14.79H8.19L6.54 18H0.24ZM9.84 10.65H15.99L13.08 4.26H12.78L9.84 10.65ZM27.7898 18L28.0898 15.6V0.36H33.8498V13.89H44.4698L46.2698 17.67C46.2698 17.75 45.9998 17.83 45.4598 17.91C44.9198 17.97 43.9898 18 42.6698 18H27.7898ZM48.0591 18L41.6391 0.39H48.0291L51.0291 10.41L51.7191 13.02H52.0191L52.4091 11.28L55.4991 0.39H62.3991L65.6691 11.28L66.2091 13.02H66.5091L67.1991 10.41L69.9291 0.39H76.2291L75.9291 2.19L69.7491 18H62.8491L59.6691 8.31L59.0691 5.79H58.7691L58.1991 8.31L55.0491 18H48.0591ZM83.9787 18C81.8587 18 80.3087 17.53 79.3287 16.59C78.3687 15.63 77.8887 14.11 77.8887 12.03V6.3C77.8887 4.26 78.3687 2.76 79.3287 1.8C80.2887 0.84 81.8387 0.36 83.9787 0.36H92.7387C94.8387 0.36 96.3687 0.84 97.3287 1.8C98.3087 2.76 98.7987 4.26 98.7987 6.3V12.03C98.7987 14.11 98.3087 15.63 97.3287 16.59C96.3487 17.53 94.8187 18 92.7387 18H83.9787ZM86.0487 13.92H90.6987C92.2587 13.92 93.0387 13.21 93.0387 11.79V6.54C93.0387 5.14 92.2587 4.44 90.6987 4.44H86.0487C85.2487 4.44 84.6487 4.6 84.2487 4.92C83.8487 5.24 83.6487 5.78 83.6487 6.54V11.79C83.6487 12.53 83.8487 13.07 84.2487 13.41C84.6487 13.75 85.2487 13.92 86.0487 13.92ZM101.419 18V14.49L112.939 4.44H101.419V0.36H121.249V3.84L109.459 13.89H120.499L122.299 17.67C122.299 17.75 122.029 17.83 121.489 17.91C120.949 17.97 120.019 18 118.699 18H101.419Z" fill="white"/>
</svg>
